<?xml version="1.0" encoding="UTF-8"?><svg id="Layer_2" xmlns="http://www.w3.org/2000/svg" xmlns:xlink="http://www.w3.org/1999/xlink" viewBox="0 0 64 64"><defs><style>.cls-1,.cls-2,.cls-3,.cls-4,.cls-5{fill:none;}.cls-6{clip-path:url(#clippath);}.cls-2{stroke:#f05a28;}.cls-2,.cls-3,.cls-4,.cls-5{stroke-miterlimit:10;stroke-width:.93px;}.cls-3{stroke:#eb008b;}.cls-4{stroke:#f6921e;}.cls-5{stroke:#90278e;}</style><clipPath id="clippath"><circle class="cls-1" cx="32" cy="32" r="32"/></clipPath></defs><g id="Layer_1-2"><g class="cls-6"><g><line class="cls-5" x1="26.29" y1="63.49" x2="23.08" y2="1.26"/><line class="cls-2" x1="37.71" y1="63.49" x2="40.92" y2="1.26"/><line class="cls-3" x1="5.75" y1="50.3" x2="47.35" y2="3.91"/><line class="cls-4" x1="13.85" y1="58.36" x2="60" y2="16.5"/><line class="cls-5" x1=".48" y1="26.47" x2="62.69" y2="22.9"/><line class="cls-2" x1=".54" y1="37.89" x2="62.79" y2="40.75"/><line class="cls-3" x1="13.55" y1="5.85" x2="60.17" y2="47.19"/><line class="cls-4" x1="5.54" y1="14" x2="47.66" y2="59.91"/><line class="cls-5" x1="37.35" y1=".45" x2="41.27" y2="62.64"/><line class="cls-2" x1="25.93" y1=".57" x2="23.43" y2="62.84"/><line class="cls-3" x1="58.04" y1="13.4" x2="16.97" y2="60.26"/><line class="cls-4" x1="49.85" y1="5.44" x2="4.18" y2="47.82"/><line class="cls-5" x1="63.58" y1="37.18" x2="1.42" y2="41.44"/><line class="cls-2" x1="63.39" y1="25.75" x2="1.11" y2="23.6"/><line class="cls-3" x1="50.74" y1="57.94" x2="3.66" y2="17.13"/><line class="cls-4" x1="58.66" y1="49.7" x2="16.02" y2="4.27"/></g></g></g></svg>