<svg xmlns="http://www.w3.org/2000/svg" xmlns:xlink="http://www.w3.org/1999/xlink" style="display: none">
    <symbol id="icon-x" viewBox="0 0 24 24">
        <path d="M0 0h24v24H0z" fill="none"/>
        <path d="M19 6.41L17.59 5 12 10.59 6.41 5 5 6.41 10.59 12 5 17.59 6.41 19 12 13.41 17.59 19 19 17.59 13.41 12z"/>
    </symbol>
    <symbol id="icon-menu-open" viewBox="0 0 24 24">
        <!-- <path d="M0 0h24v24H0V0z" fill="none"/>
        <path d="M3 18h13v-2H3v2zm0-5h10v-2H3v2zm0-7v2h13V6H3zm18 9.59L17.42 12 21 8.41 19.59 7l-5 5 5 5L21 15.59z"/> -->
        <path d="M0 0h24v24H0z" fill="none"/>
        <path d="M6 10c-1.1 0-2 .9-2 2s.9 2 2 2 2-.9 2-2-.9-2-2-2zm12 0c-1.1 0-2 .9-2 2s.9 2 2 2 2-.9 2-2-.9-2-2-2zm-6 0c-1.1 0-2 .9-2 2s.9 2 2 2 2-.9 2-2-.9-2-2-2z"/>
    </symbol>
    <symbol id="logo-nectar" title="nectar logo" viewBox="0 0 261.7 275">
        <defs>
            <style>.cls-1{fill:#f15a24;}.cls-2{fill:#fc0;}</style>
        </defs>
        <path class="cls-1" d="M258.43,244.5H216.19a5.91,5.91,0,0,0-5.12,3L189.94,284a6,6,0,0,0,0,5.92l21.13,36.58a5.91,5.91,0,0,0,5.12,3h42.24a5.93,5.93,0,0,0,5.13-3L284.68,290a5.91,5.91,0,0,0,0-5.92l-21.12-36.58A5.93,5.93,0,0,0,258.43,244.5Z" transform="translate(-189.15 -102.5)"/>
        <path class="cls-1" d="M258.81,149.5H216.57a5.93,5.93,0,0,0-5.13,3L190.32,189a5.91,5.91,0,0,0,0,5.92l21.12,36.58a5.93,5.93,0,0,0,5.13,3h42.24a5.91,5.91,0,0,0,5.12-3L285.06,195a6,6,0,0,0,0-5.92l-21.13-36.58A5.91,5.91,0,0,0,258.81,149.5Z" transform="translate(-189.15 -102.5)"/>
        <path class="cls-2" d="M340.81,292.5H298.57a5.93,5.93,0,0,0-5.13,3L272.32,332a5.91,5.91,0,0,0,0,5.92l21.12,36.58a5.93,5.93,0,0,0,5.13,3h42.24a5.91,5.91,0,0,0,5.12-3L367.06,338a6,6,0,0,0,0-5.92l-21.13-36.58A5.91,5.91,0,0,0,340.81,292.5Z" transform="translate(-189.15 -102.5)"/>
        <path class="cls-2" d="M340.81,197.5H298.57a5.93,5.93,0,0,0-5.13,3L272.32,237a5.91,5.91,0,0,0,0,5.92l21.12,36.58a5.93,5.93,0,0,0,5.13,3h42.24a5.91,5.91,0,0,0,5.12-3L367.06,243a6,6,0,0,0,0-5.92l-21.13-36.58A5.91,5.91,0,0,0,340.81,197.5Z" transform="translate(-189.15 -102.5)"/>
        <path class="cls-1" d="M423.81,244.5H381.57a5.93,5.93,0,0,0-5.13,3L355.32,284a5.91,5.91,0,0,0,0,5.92l21.12,36.58a5.93,5.93,0,0,0,5.13,3h42.24a5.91,5.91,0,0,0,5.12-3L450.06,290a6,6,0,0,0,0-5.92l-21.13-36.58A5.91,5.91,0,0,0,423.81,244.5Z" transform="translate(-189.15 -102.5)"/>
        <path class="cls-1" d="M423.81,149.5H381.57a5.93,5.93,0,0,0-5.13,3L355.32,189a5.91,5.91,0,0,0,0,5.92l21.12,36.58a5.93,5.93,0,0,0,5.13,3h42.24a5.91,5.91,0,0,0,5.12-3L450.06,195a6,6,0,0,0,0-5.92l-21.13-36.58A5.91,5.91,0,0,0,423.81,149.5Z" transform="translate(-189.15 -102.5)"/>
        <path class="cls-1" d="M340.81,102.5H298.57a5.93,5.93,0,0,0-5.13,3L272.32,142a5.91,5.91,0,0,0,0,5.92l21.12,36.58a5.93,5.93,0,0,0,5.13,3h42.24a5.91,5.91,0,0,0,5.12-3L367.06,148a6,6,0,0,0,0-5.92l-21.13-36.58A5.91,5.91,0,0,0,340.81,102.5Z" transform="translate(-189.15 -102.5)"/>
    </symbol>
    <!-- <symbol id="sidewalk-logo" title="sidewalk logo" viewBox="0 0 240 240">
        <defs>
            <style>.cls-1{fill:none;}.cls-2{clip-path:url(#clip-path);}</style>
            <clipPath id="clip-path">
                <rect class="cls-1" width="240" height="240"/>
            </clipPath>
        </defs>
        <g class="cls-2">
            <path d="M178,111.57H24.57a3,3,0,0,1-2.8-2.3L8.22,47.61c-.18-.84.5-1.53,1.52-1.53H133.67a4,4,0,0,1,2.9,1.53l42.13,61.66C179.56,110.53,179.24,111.57,178,111.57Z"/>
            <path d="M271.64,250H55.9c-1.77,0-3.67-2.05-4.22-4.54L26,128.6a1.94,1.94,0,0,1,1.84-2.54H187.78a5.91,5.91,0,0,1,4.13,2.54l79.85,116.86C273.46,248,273.41,250,271.64,250Z"/>
            <path d="M127.73,37.3H7.75a2.14,2.14,0,0,1-2.1-1.41L-3.33-5c-.12-.55.46-1,1.28-1H98.43a2.93,2.93,0,0,1,2.19,1l27.94,40.89C129.09,36.67,128.72,37.3,127.73,37.3Z"/>
        </g>
    </symbol> -->
    <symbol id="sidewalk-logo" title="sidewalk logo" viewBox="0 0 240 240">
        <defs>
            <clipPath id="clip-path">
                <rect width="240" height="240" fill="none"/>
            </clipPath>
        </defs>
        <g clip-path="url(#clip-path)">
            <path d="M160.16,111.57H23.92a2.77,2.77,0,0,1-2.49-2.3L9.4,47.61a1.28,1.28,0,0,1,1.35-1.53H120.8a3.44,3.44,0,0,1,2.57,1.53l37.42,61.66C161.55,110.53,161.27,111.57,160.16,111.57Z"/>
            <path d="M243.32,250H51.74c-1.57,0-3.26-2.05-3.75-4.54L25.19,128.6a2,2,0,0,1,1.1-2.44,1.39,1.39,0,0,1,.53-.1h142a5.22,5.22,0,0,1,3.67,2.54l70.9,116.86C244.93,248,244.89,250,243.32,250Z"/>
            <path d="M115.52,37.3H9a1.9,1.9,0,0,1-1.86-1.41L-.86-5C-1-5.55-.45-6,.28-6H89.51a2.48,2.48,0,0,1,1.94,1l24.81,40.89C116.73,36.67,116.4,37.3,115.52,37.3Z"/>
        </g>
    </symbol>
</svg>
